<svg xmlns="http://www.w3.org/2000/svg" width="900" height="590" viewBox="0 0 900 590" font-family="-apple-system,Helvetica,Arial,sans-serif">
  <rect width="900" height="590" fill="#0f1117"/>
  <line x1="2.89999e-14" y1="337.309" x2="900" y2="337.309" stroke="#3a3f4b" stroke-width="1" stroke-dasharray="4 4"/>
  <polygon points="62.069,337.309 86.251,330.605 112.146,324.46 139.606,318.874 168.48,313.847 198.621,309.378 229.879,305.467 262.105,302.116 295.15,299.322 328.866,297.088 363.103,295.412 397.713,294.295 432.546,293.736 467.454,293.736 502.287,294.295 536.897,295.412 571.134,297.088 604.85,299.322 637.895,302.116 670.121,305.467 701.379,309.378 731.52,313.847 760.394,318.874 787.854,324.46 813.749,330.605 837.931,337.309 813.749,344.012 787.854,350.157 760.394,355.743 731.52,360.771 701.379,365.24 670.121,369.15 637.895,372.502 604.85,375.295 571.134,377.529 536.897,379.205 502.287,380.322 467.454,380.881 432.546,380.881 397.713,380.322 363.103,379.205 328.866,377.529 295.15,375.295 262.105,372.502 229.879,369.15 198.621,365.24 168.48,360.771 139.606,355.743 112.146,350.157 86.251,344.012 62.069,337.309 " fill="none" stroke="#8a8f9a" stroke-width="1.6" stroke-dasharray="6 5" opacity="0.9"/>
  <polygon points="62.069,337.309 140.325,335.074 212.362,333.026 278.477,331.163 338.969,329.488 394.136,327.998 444.275,326.694 489.684,325.577 530.662,324.646 567.506,323.901 600.514,323.342 629.985,322.97 656.215,322.784 679.504,322.784 700.148,322.97 718.446,323.342 734.696,323.901 749.195,324.646 762.243,325.577 774.135,326.694 785.171,327.998 795.649,329.488 805.866,331.163 816.12,333.026 826.709,335.074 837.931,337.309 826.709,339.543 816.12,341.592 805.866,343.454 795.649,345.13 785.171,346.619 774.135,347.923 762.243,349.04 749.195,349.971 734.696,350.716 718.446,351.275 700.148,351.647 679.504,351.834 656.215,351.834 629.985,351.647 600.514,351.275 567.506,350.716 530.662,349.971 489.684,349.04 444.275,347.923 394.136,346.619 338.969,345.13 278.477,343.454 212.362,341.592 140.325,339.543 62.069,337.309 " fill="#4fc3f7" fill-opacity="0.18" stroke="#4fc3f7" stroke-width="2.6"/>
  <circle cx="256.034" cy="279.119" r="4" fill="#8a8f9a"/>
  <circle cx="643.966" cy="279.119" r="4" fill="#8a8f9a"/>
  <circle cx="740.943" cy="317.911" r="4" fill="#ffb74d"/>
  <circle cx="740.947" cy="317.911" r="4" fill="#ffb74d"/>
  <text x="20" y="30" fill="#e6e9ef" font-size="20" font-weight="700">Drag shape optimization</text>
  <text x="20" y="54" fill="#aab1bd" font-size="14">initial drag = 6.5898e-22      optimized drag = 1.0751e-22</text>
  <line x1="650" y1="28" x2="685" y2="28" stroke="#8a8f9a" stroke-width="1.6" stroke-dasharray="6 5"/>
  <text x="692" y="33" fill="#aab1bd" font-size="13">initial</text>
  <line x1="650" y1="50" x2="685" y2="50" stroke="#4fc3f7" stroke-width="2.6"/>
  <text x="692" y="55" fill="#aab1bd" font-size="13">optimized</text>
</svg>
