<svg xmlns="http://www.w3.org/2000/svg" width="900" height="590" viewBox="0 0 900 590" font-family="-apple-system,Helvetica,Arial,sans-serif">
  <rect width="900" height="590" fill="#0f1117"/>
  <line x1="2.89999e-14" y1="337.309" x2="900" y2="337.309" stroke="#3a3f4b" stroke-width="1" stroke-dasharray="4 4"/>
  <polygon points="62.069,337.309 86.251,330.605 112.146,324.46 139.606,318.874 168.48,313.847 198.621,309.378 229.879,305.467 262.105,302.116 295.15,299.322 328.866,297.088 363.103,295.412 397.713,294.295 432.546,293.736 467.454,293.736 502.287,294.295 536.897,295.412 571.134,297.088 604.85,299.322 637.895,302.116 670.121,305.467 701.379,309.378 731.52,313.847 760.394,318.874 787.854,324.46 813.749,330.605 837.931,337.309 813.749,344.012 787.854,350.157 760.394,355.743 731.52,360.771 701.379,365.24 670.121,369.15 637.895,372.502 604.85,375.295 571.134,377.529 536.897,379.205 502.287,380.322 467.454,380.881 432.546,380.881 397.713,380.322 363.103,379.205 328.866,377.529 295.15,375.295 262.105,372.502 229.879,369.15 198.621,365.24 168.48,360.771 139.606,355.743 112.146,350.157 86.251,344.012 62.069,337.309 " fill="none" stroke="#8a8f9a" stroke-width="1.6" stroke-dasharray="6 5" opacity="0.9"/>
  <polygon points="62.069,337.309 138.29,335.074 204.559,333.026 261.683,331.164 310.47,329.488 351.726,327.998 386.258,326.695 414.872,325.578 438.376,324.647 457.577,323.902 473.281,323.343 486.296,322.971 497.428,322.784 507.483,322.784 517.27,322.971 527.595,323.343 539.264,323.902 553.084,324.647 569.864,325.578 590.408,326.695 615.525,327.998 646.02,329.488 682.702,331.164 726.376,333.026 777.85,335.074 837.931,337.309 777.85,339.543 726.376,341.591 682.702,343.453 646.02,345.129 615.525,346.619 590.408,347.922 569.864,349.04 553.084,349.971 539.264,350.716 527.595,351.274 517.27,351.647 507.483,351.833 497.428,351.833 486.296,351.647 473.281,351.274 457.577,350.716 438.376,349.971 414.872,349.04 386.258,347.922 351.726,346.619 310.47,345.129 261.683,343.453 204.559,341.591 138.29,339.543 62.069,337.309 " fill="#4fc3f7" fill-opacity="0.18" stroke="#4fc3f7" stroke-width="2.6"/>
  <circle cx="256.034" cy="279.119" r="4" fill="#8a8f9a"/>
  <circle cx="643.966" cy="279.119" r="4" fill="#8a8f9a"/>
  <circle cx="740.948" cy="317.912" r="4" fill="#ffb74d"/>
  <circle cx="299.157" cy="317.912" r="4" fill="#ffb74d"/>
  <text x="20" y="30" fill="#e6e9ef" font-size="20" font-weight="700">Drag shape optimization</text>
  <text x="20" y="54" fill="#aab1bd" font-size="14">initial drag = 6.5898e-22      optimized drag = 7.2599e-23</text>
  <line x1="650" y1="28" x2="685" y2="28" stroke="#8a8f9a" stroke-width="1.6" stroke-dasharray="6 5"/>
  <text x="692" y="33" fill="#aab1bd" font-size="13">initial</text>
  <line x1="650" y1="50" x2="685" y2="50" stroke="#4fc3f7" stroke-width="2.6"/>
  <text x="692" y="55" fill="#aab1bd" font-size="13">optimized</text>
</svg>
